# xmcd
#
# Track frame offsets: 
#        150
#        13579
#        27468
#        39785
#        53366
#        66675
#        80376
#        93302
#        105657
#        116143
#
# Disc length: 1661 seconds
#
# Revision: 0
# Processed by: cddbd v1.5.2PL0 Copyright (c) Steve Scherf et al.
# Submitted via: ExactAudioCopy v0.99pb4
#
DISCID=78067b0a
DTITLE=Roy Brown - Rockin' at Midnight
DYEAR=2004
DGENRE=Classic Blues
TTITLE0=Good Rockin' Tonight
TTITLE1='Long About Midnight
TTITLE2=Rockin' at Midnight
TTITLE3=Hard Luck Blues
TTITLE4=Cadillac Baby
TTITLE5=Bar Room Blues
TTITLE6=Boogie at Midnight
TTITLE7=Love Don't Love Nobody
TTITLE8=Ain't It a Shame
TTITLE9=Letter From Home
EXTD=
EXTT0=
EXTT1=
EXTT2=
EXTT3=
EXTT4=
EXTT5=
EXTT6=
EXTT7=
EXTT8=
EXTT9=
PLAYORDER=
